<svg xmlns="http://www.w3.org/2000/svg" width="100" height="13.1"><g id="logo" transform="translate(0 .1)" fill="#fff"><path id="Path_11" data-name="Path 11" d="M0 0a3.777 3.777 0 0 0 2.6 2.6h4.1l.2.1V13h2.5V2.7l.2-.1h4.1A3.769 3.769 0 0 0 16.3 0H0Z"/><path id="Path_12" data-name="Path 12" d="M77.8 13a3.372 3.372 0 0 0 2.2-2.6H68.7V-.1h-2.5v13h11.6Z"/><path id="Path_13" data-name="Path 13" d="M47.3 2.6h9A3.741 3.741 0 0 0 59 0H44.8v7.7h11.6v2.7h-9.1a5.244 5.244 0 0 0-3.2 2.6H59V5.2H47.3Z"/><path id="Path_14" data-name="Path 14" d="M85.4 5.2V13H88V7.8h9.1V13h2.6V5.2Z"/><path id="Path_15" data-name="Path 15" d="M25.2 2.6h9.7A3.6 3.6 0 0 0 37.5 0h-15a3.919 3.919 0 0 0 2.7 2.6"/><path id="Path_16" data-name="Path 16" d="M25.2 7.8h9.7a3.6 3.6 0 0 0 2.6-2.6h-15a4.125 4.125 0 0 0 2.7 2.6"/><path id="Path_17" data-name="Path 17" d="M25.2 13h9.7a3.6 3.6 0 0 0 2.6-2.6h-15a3.735 3.735 0 0 0 2.7 2.6"/><path id="Path_18" data-name="Path 18" d="M87.7 2.6h9.7A3.6 3.6 0 0 0 100 0H85a3.434 3.434 0 0 0 2.7 2.6"/></g></svg>